# This file uses centimeters as units for non-parametric coordinates.

mtllib test.mtl
g default
v -1.088036 -1.088036 1.088036
v -1.088036 1.088036 1.088036
v 1.088036 -1.088036 1.088036
v 1.088036 1.088036 1.088036
v 1.088036 -1.088036 -1.088036
v 1.088036 1.088036 -1.088036
v -1.088036 -1.088036 -1.088036
v -1.088036 1.088036 -1.088036
vt 1.000000 0.000000
vt 1.000000 1.000000
vt 0.000000 1.000000
vt 0.000000 0.000000
vt 1.000000 0.000000
vt 1.000000 1.000000
vt 0.000000 1.000000
vt 0.000000 0.000000
vt 1.000000 0.000000
vt 1.000000 1.000000
vt 0.000000 1.000000
vt 0.000000 0.000000
vt 1.000000 0.000000
vt 1.000000 1.000000
vt 0.000000 1.000000
vt 0.000000 0.000000
vt 1.000000 0.000000
vt 0.000000 0.000000
vt 1.000000 1.000000
vt 0.000000 1.000000
vn 0.000000 0.000000 1.000000
vn 0.000000 0.000000 1.000000
vn 0.000000 0.000000 1.000000
vn 0.000000 0.000000 1.000000
vn 1.000000 0.000000 0.000000
vn 1.000000 0.000000 0.000000
vn 1.000000 0.000000 0.000000
vn 1.000000 0.000000 0.000000
vn 0.000000 0.000000 -1.000000
vn 0.000000 0.000000 -1.000000
vn 0.000000 0.000000 -1.000000
vn 0.000000 0.000000 -1.000000
vn -1.000000 0.000000 0.000000
vn -1.000000 0.000000 0.000000
vn -1.000000 0.000000 0.000000
vn -1.000000 0.000000 0.000000
vn 0.000000 1.000000 0.000000
vn 0.000000 1.000000 0.000000
vn 0.000000 1.000000 0.000000
vn 0.000000 1.000000 0.000000
vn 0.000000 -1.000000 0.000000
vn 0.000000 -1.000000 0.000000
vn 0.000000 -1.000000 0.000000
vn 0.000000 -1.000000 0.000000
s off
g Untitled_1:Cube
usemtl initialShadingGroup
f 3/1/1 4/2/2 2/3/3 1/4/4
f 5/5/5 6/6/6 4/7/7 3/8/8
f 7/9/9 8/10/10 6/11/11 5/12/12
f 1/13/13 2/14/14 8/15/15 7/16/16
f 4/17/17 6/6/18 8/15/19 2/18/20
f 5/5/21 3/19/22 1/20/23 7/16/24
